<?xml version="1.0" encoding="utf-8"?>
<!-- Generator: Adobe Illustrator 26.3.1, SVG Export Plug-In . SVG Version: 6.00 Build 0)  -->
<svg version="1.1" id="Layer_1" xmlns="http://www.w3.org/2000/svg"
	xmlns:xlink="http://www.w3.org/1999/xlink" x="0px" y="0px"
	viewBox="0 0 32 32" style="enable-background:new 0 0 32 32;" xml:space="preserve">
<style type="text/css">
	.st0{fill:#82B428;}
	.st1{fill:#96C124;}
	.st2{fill:#97C023;}
	.st3{fill:#A9C824;}
	.st4{fill:#82B529;}
	.st5{fill:#70A42E;}
	.st6{fill:#6DA32E;}
	.st7{fill:#72A52D;}
	.st8{fill:#5E9731;}
	.st9{fill:#5D9631;}
	.st10{fill:#4D8933;}
	.st11{fill:#508A34;}
</style>
<g>
	<circle class="st0" cx="12.68" cy="20.29" r="1.98"/>
	<circle class="st1" cx="15.82" cy="25.37" r="1.98"/>
	<circle class="st2" cx="20.3" cy="24.58" r="1.98"/>
	<circle class="st3" cx="19" cy="29.37" r="1.98"/>
	
		<ellipse transform="matrix(0.9732 -0.2298 0.2298 0.9732 -4.0228 4.4653)" class="st0" cx="17.16" cy="19.51" rx="1.98" ry="1.98"/>
	
		<ellipse transform="matrix(0.9732 -0.2298 0.2298 0.9732 -3.7392 5.4632)" class="st4" cx="21.59" cy="18.79" rx="1.98" ry="1.98"/>
	<circle class="st5" cx="18.19" cy="13.49" r="1.98"/>
	<circle class="st6" cx="22.7" cy="12.77" r="1.98"/>
	<circle class="st7" cx="13.72" cy="14.21" r="1.98"/>
	<ellipse transform="matrix(0.9871 -0.1602 0.1602 0.9871 -2.2928 1.6844)" class="st7" cx="9.3" cy="15.06" rx="1.98" ry="1.98"/>
	<ellipse transform="matrix(0.9732 -0.2298 0.2298 0.9732 -1.5592 4.2778)" class="st8" cx="17.59" cy="8.83" rx="1.98" ry="1.98"/>
	<circle class="st9" cx="13.07" cy="9.56" r="1.98"/>
	<path class="st10" d="M15.27,7.57c0.08-0.16,0.15-0.33,0.21-0.5c0.53-1.55,0.59-3.29,2.15-4.42c0.55-0.4,0.36-1.31-0.28-1.8
		c-0.49-0.38-0.97-0.19-1.27,0.3c-1.23,2.01-1.21,4.2-1.09,6.45C15.14,7.76,15.26,7.59,15.27,7.57z"/>
	<path class="st11" d="M10.23,5.56c-0.01,0.01-0.01,0.02,0,0.03c1.21,0.61,2.38,0.42,3.21-0.19c0.04-0.03,0.04-0.08,0.02-0.11
		c-0.27-0.36-1.74-1.99-1.78-2.03c-0.05-0.05,1.61,1.16,2.41,2.08c-0.1-0.14-0.18-0.27-0.24-0.39c0,0,0,0,0,0
		c-0.06-0.29-0.04-0.5,0.12-0.59c0.85-0.39,0.78-1.59,0.14-2.43c-0.01-0.01-0.02-0.01-0.02,0c-0.61,0.68-1.43,0.06-2.13-0.73
		c-0.01-0.01-0.02-0.01-0.02,0c-0.56,0.96-1.35,0.99-2.36,0.64c-0.01,0-0.02,0.01-0.02,0.02c0.68,1.07,0.61,1.87-0.23,1.94
		c-0.01,0-0.02,0.02-0.01,0.02C10.16,4.86,10.87,5.02,10.23,5.56z"/>
</g>
</svg>