<?xml version="1.0" encoding="utf-8"?>
<!-- Generator: Adobe Illustrator 26.3.1, SVG Export Plug-In . SVG Version: 6.00 Build 0)  -->
<svg version="1.1" id="Layer_1" xmlns="http://www.w3.org/2000/svg" xmlns:xlink="http://www.w3.org/1999/xlink" x="0px" y="0px"
	 viewBox="0 0 78 56" style="enable-background:new 0 0 78 56;" xml:space="preserve">
<style type="text/css">
	.st0{fill:#82B428;}
	.st1{fill:#96C124;}
	.st2{fill:#97C023;}
	.st3{fill:#A9C824;}
	.st4{fill:#82B529;}
	.st5{fill:#70A42E;}
	.st6{fill:#6DA32E;}
	.st7{fill:#72A52D;}
	.st8{fill:#5E9731;}
	.st9{fill:#5D9631;}
	.st10{fill:#4D8933;}
	.st11{fill:#508A34;}
</style>
<g>
	<circle class="st0" cx="33.17" cy="35.52" r="3.47"/>
	<circle class="st1" cx="38.68" cy="44.44" r="3.47"/>
	<circle class="st2" cx="46.54" cy="43.04" r="3.47"/>
	<circle class="st3" cx="44.27" cy="51.45" r="3.47"/>
	
		<ellipse transform="matrix(0.9732 -0.2298 0.2298 0.9732 -6.7483 10.3428)" class="st0" cx="41.04" cy="34.15" rx="3.47" ry="3.47"/>
	<ellipse transform="matrix(0.9732 -0.2298 0.2298 0.9732 -6.251 12.0925)" class="st4" cx="48.8" cy="32.89" rx="3.47" ry="3.47"/>
	<circle class="st5" cx="42.83" cy="23.59" r="3.47"/>
	<circle class="st6" cx="50.75" cy="22.33" r="3.47"/>
	<circle class="st7" cx="35" cy="24.86" r="3.47"/>
	
		<ellipse transform="matrix(0.9871 -0.1602 0.1602 0.9871 -3.8701 4.7061)" class="st7" cx="27.25" cy="26.36" rx="3.47" ry="3.47"/>
	
		<ellipse transform="matrix(0.9732 -0.2298 0.2298 0.9732 -2.4286 10.014)" class="st8" cx="41.79" cy="15.44" rx="3.47" ry="3.47"/>
	<circle class="st9" cx="33.86" cy="16.72" r="3.47"/>
	<path class="st10" d="M37.72,13.22c0.13-0.29,0.27-0.58,0.37-0.88c0.94-2.72,1.03-5.76,3.76-7.75c0.97-0.7,0.63-2.29-0.5-3.16
		c-0.86-0.66-1.71-0.33-2.23,0.53C36.97,5.49,37,9.33,37.21,13.28C37.5,13.56,37.7,13.25,37.72,13.22z"/>
	<path class="st11" d="M28.88,9.69c-0.01,0.01-0.01,0.04,0,0.05c2.12,1.07,4.17,0.74,5.62-0.33c0.06-0.05,0.07-0.13,0.03-0.2
		c-0.47-0.62-3.05-3.49-3.11-3.56c-0.09-0.09,2.82,2.03,4.23,3.65c-0.17-0.24-0.31-0.47-0.41-0.69c0,0,0-0.01,0-0.01
		c-0.1-0.51-0.07-0.88,0.21-1.04c1.49-0.68,1.36-2.78,0.24-4.26c-0.01-0.01-0.03-0.01-0.04,0c-1.07,1.19-2.51,0.1-3.73-1.27
		c-0.01-0.01-0.03-0.01-0.04,0.01c-0.98,1.68-2.37,1.73-4.14,1.12c-0.02-0.01-0.04,0.02-0.03,0.04c1.19,1.88,1.07,3.27-0.41,3.4
		c-0.02,0-0.03,0.03-0.02,0.04C28.75,8.47,30,8.75,28.88,9.69z"/>
</g>
</svg>
